<svg id="Layer_1" data-name="Layer 1" xmlns="http://www.w3.org/2000/svg" viewBox="0 0 337.21 80"><defs><style>.cls-1{fill:#1d1d1b;}</style></defs><path class="cls-1" d="M79.93.07H41.6V38.41H79.93ZM54.07,6.57a2.77,2.77,0,1,1-2.79,2.77A2.77,2.77,0,0,1,54.07,6.57ZM70.41,31.65H64.84V23.77l5.57-5.12Zm0-17.5-5.79,5.48-6.47,5.83-6.87,6.19V15.18h5.57v4.26L70.4,6.59h0Z"/><path class="cls-1" d="M38.32.07H0V38.41H38.32ZM11.9,31.62H6.41l8-16,2.75,5.48Zm14.15,0L16.22,12l2.71-5.41L31.47,31.62Z"/><path class="cls-1" d="M79.93,41.69H41.6V80H79.93ZM48.35,73.53l8-16L59.08,63,53.84,73.53Zm12.52-1.34a2.77,2.77,0,1,1,2.77-2.77A2.77,2.77,0,0,1,60.87,72.19ZM68,73.53,58.16,53.86l2.7-5.41L73.4,73.53Z"/><path class="cls-1" d="M38.32,41.69H0V80H38.32ZM15.26,73.53H9.63V57h5.63ZM12.45,54.11a2.82,2.82,0,1,1,2.81-2.82A2.82,2.82,0,0,1,12.45,54.11Zm15.77,0h-10V48.47h10Z"/><polygon class="cls-1" points="96.07 6.67 96.07 31.7 115.05 31.7 115.05 36.71 120.07 36.71 120.07 26.9 116.92 26.9 116.92 6.67 111.19 6.67 111.19 26.9 101.8 26.9 101.8 6.67 96.07 6.67"/><polygon class="cls-1" points="139.53 15.44 139.74 15.44 139.74 31.7 145.48 31.7 145.48 6.67 139.56 6.67 130.36 22.97 130.14 22.97 130.14 6.67 124.41 6.67 124.41 31.7 130.29 31.7 139.53 15.44"/><path class="cls-1" d="M178.17,18.31c0-6-4.7-10.28-11.17-10.28h-.26V5.42H161V8h-.26c-6.47,0-11.17,4.32-11.17,10.28,0,6.15,4.7,10.61,11.17,10.61H161v3.21h5.74V28.92H167C173.47,28.92,178.17,24.46,178.17,18.31ZM161,24.22h-.26c-3,0-5.33-2.59-5.33-5.91a5.4,5.4,0,0,1,5.33-5.58H161Zm6,0h-.26V12.73H167a5.4,5.4,0,0,1,5.33,5.58C172.33,21.63,170,24.22,167,24.22Z"/><path class="cls-1" d="M200.69,15.2c0-5-3.32-8.53-8.07-8.53H182.27v25H188v-7.9h4.62C197.37,23.81,200.69,20.27,200.69,15.2ZM188,19V11.51h3.44c2.14,0,3.41,1.38,3.41,3.69S193.54,19,191.34,19Z"/><path class="cls-1" d="M216.32,6.24c-7.48,0-13.11,5.5-13.11,12.79a13.11,13.11,0,0,0,26.21,0C229.42,11.74,223.79,6.24,216.32,6.24Zm0,20.7c-4,0-7.16-3.48-7.16-7.91a7.17,7.17,0,1,1,14.31,0C223.47,23.46,220.33,26.94,216.32,26.94Z"/><path class="cls-1" d="M243.05,6.67h-9.14v25h9.14c2.84,0,9.46-.72,9.46-7.36a5.51,5.51,0,0,0-3.82-5.5l-.19-.06v-.41l.14-.08a6,6,0,0,0,2.83-5.2C251.47,9.07,248.32,6.67,243.05,6.67Zm-3.41,4.84H243A2.33,2.33,0,0,1,245.63,14a2.42,2.42,0,0,1-2.51,2.62h-3.48Zm4,15.36h-4V21.06h4.05a2.71,2.71,0,0,1,2.94,2.86A2.81,2.81,0,0,1,243.65,26.87Z"/><path class="cls-1" d="M268.74,6.24c-7.47,0-13.1,5.5-13.1,12.79a13.11,13.11,0,0,0,26.21,0C281.85,11.74,276.21,6.24,268.74,6.24Zm0,20.7c-4,0-7.16-3.48-7.16-7.91a7.17,7.17,0,1,1,14.32,0C275.9,23.46,272.76,26.94,268.74,26.94Z"/><path class="cls-1" d="M290.68.19V0h4.48V.22a2,2,0,0,0,2.16,2.07A2,2,0,0,0,299.49.22V0h4.45V.19c0,3.42-3.08,5.35-6.62,5.35S290.68,3.61,290.68.19Z"/><polygon class="cls-1" points="301.45 15.44 301.66 15.44 301.67 31.7 307.4 31.7 307.4 6.67 301.48 6.67 292.28 22.97 292.07 22.97 292.07 6.67 286.33 6.67 286.33 31.7 292.21 31.7 301.45 15.44"/><path class="cls-1" d="M119,60.72c0-7.54-5.33-12.82-13-12.82a13.56,13.56,0,0,0-9.64,3.57l2.62,4.28A10.27,10.27,0,0,1,105.82,53c3.61,0,6.32,2,7.08,5.24l.07.32H102.33v4.48h10.61l-.08.32c-.79,3.31-3.43,5.28-7,5.28a11.08,11.08,0,0,1-7-2.63l-2.78,4a14.48,14.48,0,0,0,9.73,3.71C113.46,73.79,119,68.3,119,60.72Z"/><polygon class="cls-1" points="137.64 73.36 144.05 73.36 136.94 60.37 136.94 60.23 143.65 48.33 137.53 48.33 132.24 58.2 129.25 58.2 129.25 48.33 123.52 48.33 123.52 73.36 129.25 73.36 129.25 63 132.24 63 137.64 73.36"/><path class="cls-1" d="M158.6,47.9c-7.47,0-13.1,5.5-13.1,12.79a13.11,13.11,0,0,0,26.21,0C171.71,53.4,166.07,47.9,158.6,47.9Zm0,20.7c-4,0-7.16-3.48-7.16-7.91a7.17,7.17,0,1,1,14.32,0C165.76,65.12,162.62,68.6,158.6,68.6Z"/><polygon class="cls-1" points="198.66 73.36 198.66 48.33 192.93 48.33 192.93 58.55 181.93 58.55 181.93 48.33 176.19 48.33 176.19 73.36 181.93 73.36 181.93 63.36 192.93 63.36 192.93 73.36 198.66 73.36"/><path class="cls-1" d="M216.25,47.9c-7.47,0-13.1,5.5-13.1,12.79a13.11,13.11,0,0,0,26.21,0C229.36,53.4,223.73,47.9,216.25,47.9Zm0,20.7c-4,0-7.15-3.48-7.15-7.91a7.17,7.17,0,1,1,14.31,0C223.41,65.12,220.27,68.6,216.25,68.6Z"/><polygon class="cls-1" points="254.41 73.36 260.14 73.36 258.11 48.33 251.75 48.33 246.76 63.34 246.29 63.34 241.3 48.33 234.93 48.33 232.87 73.36 238.63 73.36 239.38 57.57 239.92 57.57 244.03 69.25 249.02 69.25 253.12 57.57 253.66 57.57 254.41 73.36"/><polygon class="cls-1" points="306.15 73.36 312.56 73.36 305.44 60.37 305.44 60.23 312.16 48.33 306.04 48.33 300.75 58.2 297.76 58.2 297.76 48.33 292.03 48.33 292.03 73.36 297.76 73.36 297.76 63 300.75 63 306.15 73.36"/><polygon class="cls-1" points="331.26 57.1 331.48 57.1 331.48 73.36 337.21 73.36 337.21 48.33 331.3 48.33 322.1 64.63 321.88 64.63 321.88 48.33 316.15 48.33 316.15 73.36 322.03 73.36 331.26 57.1"/><polygon class="cls-1" points="280.19 57.1 280.41 57.1 280.41 73.36 286.15 73.36 286.15 48.33 280.23 48.33 271.03 64.63 270.81 64.63 270.81 48.33 265.08 48.33 265.08 73.36 270.96 73.36 280.19 57.1"/></svg>