<svg id="Layer_1" data-name="Layer 1" xmlns="http://www.w3.org/2000/svg" viewBox="0 0 337.21 80"><defs><style>.cls-1{fill:#1d1d1b}</style></defs><path class="cls-1" d="M79.93.07H41.6v38.34h38.33Zm-25.86 6.5a2.77 2.77 0 1 1-2.79 2.77 2.77 2.77 0 0 1 2.79-2.77Zm16.34 25.08h-5.57v-7.88l5.57-5.12Zm0-17.5-5.79 5.48-6.47 5.83-6.87 6.19V15.18h5.57v4.26L70.4 6.59ZM38.32.07H0v38.34h38.32ZM11.9 31.62H6.41l8-16 2.75 5.48Zm14.15 0L16.22 12l2.71-5.41 12.54 25.03ZM79.93 41.69H41.6V80h38.33ZM48.35 73.53l8-16L59.08 63l-5.24 10.53Zm12.52-1.34a2.77 2.77 0 1 1 2.77-2.77 2.77 2.77 0 0 1-2.77 2.77ZM68 73.53l-9.84-19.67 2.7-5.41L73.4 73.53ZM38.32 41.69H0V80h38.32ZM15.26 73.53H9.63V57h5.63Zm-2.81-19.42a2.82 2.82 0 1 1 2.81-2.82 2.82 2.82 0 0 1-2.81 2.82Zm15.77 0h-10v-5.64h10ZM96.07 6.67V31.7h18.98v5.01h5.02V26.9h-3.15V6.67h-5.73V26.9h-9.39V6.67h-5.73zM139.53 15.44h.21V31.7h5.74V6.67h-5.92l-9.2 16.3h-.22V6.67h-5.73V31.7h5.88l9.24-16.26zM178.17 18.31c0-6-4.7-10.28-11.17-10.28h-.26V5.42H161V8h-.26c-6.47 0-11.17 4.32-11.17 10.28 0 6.15 4.7 10.61 11.17 10.61h.26v3.21h5.74v-3.18h.26c6.47 0 11.17-4.46 11.17-10.61ZM161 24.22h-.26c-3 0-5.33-2.59-5.33-5.91a5.4 5.4 0 0 1 5.33-5.58h.26Zm6 0h-.26V12.73h.26a5.4 5.4 0 0 1 5.33 5.58c0 3.32-2.33 5.91-5.33 5.91ZM200.69 15.2c0-5-3.32-8.53-8.07-8.53h-10.35v25H188v-7.9h4.62c4.75.04 8.07-3.5 8.07-8.57ZM188 19v-7.49h3.44c2.14 0 3.41 1.38 3.41 3.69s-1.31 3.8-3.51 3.8ZM216.32 6.24c-7.48 0-13.11 5.5-13.11 12.79a13.11 13.11 0 0 0 26.21 0c0-7.29-5.63-12.79-13.1-12.79Zm0 20.7c-4 0-7.16-3.48-7.16-7.91a7.17 7.17 0 1 1 14.31 0c0 4.43-3.14 7.91-7.15 7.91ZM243.05 6.67h-9.14v25h9.14c2.84 0 9.46-.72 9.46-7.36a5.51 5.51 0 0 0-3.82-5.5l-.19-.06v-.41l.14-.08a6 6 0 0 0 2.83-5.2c0-3.99-3.15-6.39-8.42-6.39Zm-3.41 4.84H243a2.33 2.33 0 0 1 2.63 2.49 2.42 2.42 0 0 1-2.51 2.62h-3.48Zm4 15.36h-4v-5.81h4.05a2.71 2.71 0 0 1 2.94 2.86 2.81 2.81 0 0 1-2.98 2.95ZM268.74 6.24c-7.47 0-13.1 5.5-13.1 12.79a13.11 13.11 0 0 0 26.21 0c0-7.29-5.64-12.79-13.11-12.79Zm0 20.7c-4 0-7.16-3.48-7.16-7.91a7.17 7.17 0 1 1 14.32 0c0 4.43-3.14 7.91-7.16 7.91ZM290.68.19V0h4.48v.22a2 2 0 0 0 2.16 2.07 2 2 0 0 0 2.17-2.07V0h4.45v.19c0 3.42-3.08 5.35-6.62 5.35s-6.64-1.93-6.64-5.35ZM301.45 15.44h.21l.01 16.26h5.73V6.67h-5.92l-9.2 16.3h-.21V6.67h-5.74V31.7h5.88l9.24-16.26zM119 60.72c0-7.54-5.33-12.82-13-12.82a13.56 13.56 0 0 0-9.64 3.57l2.62 4.28a10.27 10.27 0 0 1 6.84-2.75c3.61 0 6.32 2 7.08 5.24l.07.32h-10.64v4.48h10.61l-.08.32c-.79 3.31-3.43 5.28-7 5.28a11.08 11.08 0 0 1-7-2.63l-2.78 4a14.48 14.48 0 0 0 9.73 3.71c7.65.07 13.19-5.42 13.19-13ZM137.64 73.36h6.41l-7.11-12.99v-.14l6.71-11.9h-6.12l-5.29 9.87h-2.99v-9.87h-5.73v25.03h5.73V63h2.99l5.4 10.36zM158.6 47.9c-7.47 0-13.1 5.5-13.1 12.79a13.11 13.11 0 0 0 26.21 0c0-7.29-5.64-12.79-13.11-12.79Zm0 20.7c-4 0-7.16-3.48-7.16-7.91a7.17 7.17 0 1 1 14.32 0c0 4.43-3.14 7.91-7.16 7.91ZM198.66 73.36V48.33h-5.73v10.22h-11V48.33h-5.74v25.03h5.74v-10h11v10h5.73zM216.25 47.9c-7.47 0-13.1 5.5-13.1 12.79a13.11 13.11 0 0 0 26.21 0c0-7.29-5.63-12.79-13.11-12.79Zm0 20.7c-4 0-7.15-3.48-7.15-7.91a7.17 7.17 0 1 1 14.31 0c0 4.43-3.14 7.91-7.16 7.91ZM254.41 73.36h5.73l-2.03-25.03h-6.36l-4.99 15.01h-.47l-4.99-15.01h-6.37l-2.06 25.03h5.76l.75-15.79h.54l4.11 11.68h4.99l4.1-11.68h.54l.75 15.79zM306.15 73.36h6.41l-7.12-12.99v-.14l6.72-11.9h-6.12l-5.29 9.87h-2.99v-9.87h-5.73v25.03h5.73V63h2.99l5.4 10.36zM331.26 57.1h.22v16.26h5.73V48.33h-5.91l-9.2 16.3h-.22v-16.3h-5.73v25.03h5.88l9.23-16.26zM280.19 57.1h.22v16.26h5.74V48.33h-5.92l-9.2 16.3h-.22v-16.3h-5.73v25.03h5.88l9.23-16.26z"/></svg>